<?xml version="1.0" standalone="no"?>
<!DOCTYPE svg PUBLIC "-//W3C//DTD SVG 20010904//EN"
 "http://www.w3.org/TR/2001/REC-SVG-20010904/DTD/svg10.dtd">
<svg version="1.0" xmlns="http://www.w3.org/2000/svg"
 width="512.000000pt" height="512.000000pt" viewBox="0 0 512.000000 512.000000"
 preserveAspectRatio="xMidYMid meet">

<g transform="translate(0.000000,512.000000) scale(0.100000,-0.100000)"
fill="#000000" stroke="none">
<path d="M2485 5046 c-16 -7 -518 -365 -1115 -795 -1157 -834 -1188 -858
-1249 -982 -70 -143 -65 -22 -69 -1584 -2 -1049 0 -1424 8 -1464 17 -77 84
-144 161 -161 39 -8 277 -10 885 -8 l831 3 48 30 c36 22 57 45 77 84 l28 53 0
552 c0 600 2 628 57 729 39 70 121 149 196 185 249 123 533 11 638 -253 l24
-60 5 -591 5 -590 27 -42 c15 -22 49 -54 75 -69 l48 -28 849 -3 c946 -3 919
-5 989 63 79 77 72 -71 72 1540 l0 1440 -22 70 c-30 96 -84 182 -157 253 -67
65 -2197 1605 -2252 1628 -41 17 -119 18 -159 0z m1105 -1194 c841 -611 1018
-744 1037 -777 l23 -40 0 -1282 0 -1283 -610 0 -610 0 0 464 c0 458 0 465 -24
559 -99 388 -445 657 -845 657 -148 0 -253 -24 -386 -89 -230 -113 -398 -319
-461 -568 -24 -94 -24 -101 -24 -554 l0 -459 -610 0 -610 0 0 1283 0 1282 23
40 c17 31 75 77 247 202 1262 911 1807 1301 1820 1302 8 0 472 -332 1030 -737z"/>
</g>
</svg>
