<?xml version="1.0" standalone="no"?>
<!DOCTYPE svg PUBLIC "-//W3C//DTD SVG 20010904//EN"
 "http://www.w3.org/TR/2001/REC-SVG-20010904/DTD/svg10.dtd">
<svg version="1.0" xmlns="http://www.w3.org/2000/svg"
 width="500.000000pt" height="500.000000pt" viewBox="0 0 500.000000 500.000000"
 preserveAspectRatio="xMidYMid meet">

<g transform="translate(0.000000,500.000000) scale(0.100000,-0.100000)"
fill="#000000" stroke="none">
<path d="M2041 4592 c-80 -40 -110 -118 -111 -285 0 -155 -46 -336 -108 -433
-46 -70 -128 -139 -232 -193 -41 -22 -226 -102 -410 -179 -696 -290 -1056
-444 -1092 -468 -94 -61 -108 -206 -26 -280 35 -32 71 -48 203 -89 66 -20 203
-63 305 -95 102 -32 307 -95 455 -140 149 -45 365 -111 480 -147 1036 -320
1147 -353 1192 -353 40 0 92 21 328 131 372 173 669 308 900 409 104 45 225
99 270 121 236 112 401 251 483 407 82 156 113 331 115 650 2 239 -1 253 -63
305 -37 32 -7 24 -795 217 -363 89 -911 225 -1217 301 -306 76 -576 139 -600
139 -24 0 -58 -8 -77 -18z m739 -522 c250 -61 721 -177 1045 -258 l590 -148
-1 -134 c-1 -280 -55 -401 -227 -513 -81 -53 -242 -132 -447 -220 -157 -67
-585 -261 -838 -380 -189 -89 -228 -104 -250 -97 -119 39 -672 209 -907 280
-436 131 -985 304 -985 311 0 4 60 31 133 62 888 374 912 385 1032 474 217
162 307 332 370 696 3 20 11 37 18 37 7 0 217 -50 467 -110z"/>
<path d="M4425 2339 c-181 -83 -501 -228 -710 -323 -832 -379 -1025 -466
-1041 -466 -9 0 -138 38 -287 84 -150 46 -531 164 -847 261 -316 97 -735 226
-930 287 -195 60 -376 112 -401 115 -158 19 -265 -175 -162 -297 33 -39 75
-61 188 -95 50 -15 232 -71 405 -125 173 -54 434 -134 580 -178 146 -44 330
-100 410 -125 300 -94 887 -277 950 -296 119 -38 137 -34 395 85 127 58 345
157 485 221 140 63 359 163 485 220 263 121 874 398 921 419 132 57 170 199
81 301 -39 45 -82 63 -144 63 -40 -1 -103 -26 -378 -151z"/>
<path d="M4755 1716 c-22 -7 -130 -55 -240 -106 -110 -51 -337 -154 -505 -230
-168 -75 -413 -187 -545 -248 -415 -190 -776 -352 -788 -352 -12 0 -535 159
-1347 410 -929 287 -1107 340 -1142 340 -48 -1 -111 -33 -141 -71 -60 -81 -56
-168 11 -241 36 -38 47 -42 392 -149 337 -104 849 -261 1210 -371 91 -28 350
-108 577 -179 279 -87 427 -129 459 -129 38 0 97 23 337 134 161 74 407 186
547 249 308 139 872 395 1143 519 214 98 247 123 267 199 37 136 -101 268
-235 225z"/>
</g>
</svg>
